<?xml version="1.0" encoding="UTF-8"?>
<!DOCTYPE svg PUBLIC "-//W3C//DTD SVG 1.1//EN" "http://www.w3.org/Graphics/SVG/1.1/DTD/svg11.dtd">
<svg xmlns="http://www.w3.org/2000/svg" version="1.1" width="40px" height="40px" style="shape-rendering:geometricPrecision; text-rendering:geometricPrecision; image-rendering:optimizeQuality; fill-rule:evenodd; clip-rule:evenodd" xmlns:xlink="http://www.w3.org/1999/xlink">
<g><path style="opacity:0.596" fill="#000000" d="M 8.5,-0.5 C 15.8333,-0.5 23.1667,-0.5 30.5,-0.5C 34.5253,1.52525 37.5253,4.52525 39.5,8.5C 39.5,15.8333 39.5,23.1667 39.5,30.5C 37.4748,34.5253 34.4748,37.5253 30.5,39.5C 23.1667,39.5 15.8333,39.5 8.5,39.5C 4.47472,37.4748 1.47472,34.4748 -0.5,30.5C -0.5,23.1667 -0.5,15.8333 -0.5,8.5C 1.52525,4.47472 4.52525,1.47472 8.5,-0.5 Z M 8.5,2.5 C 32.9949,-3.17199 42.1615,6.16134 36,30.5C 35.2155,32.286 34.0488,33.786 32.5,35C 7.0632,43.2239 -2.77013,34.3906 3,8.5C 4.35968,5.97739 6.19301,3.97739 8.5,2.5 Z M 15.5,12.5 C 26.8179,11.99 29.4846,16.49 23.5,26C 12.1055,26.8027 9.43882,22.3027 15.5,12.5 Z"/></g>
<g><path style="opacity:0.549" fill="#000000" d="M 28.5,6.5 C 32.1612,6.35012 33.1612,7.85012 31.5,11C 28.2414,10.9181 27.2414,9.41809 28.5,6.5 Z"/></g>
<g><path style="opacity:0.609" fill="#000000" d="M 15.5,9.5 C 25.9884,8.48736 30.4884,13.154 29,23.5C 26.0812,29.0248 21.5812,30.8581 15.5,29C 9.97524,26.0812 8.14191,21.5812 10,15.5C 11.3597,12.9774 13.193,10.9774 15.5,9.5 Z M 15.5,12.5 C 9.43882,22.3027 12.1055,26.8027 23.5,26C 29.4846,16.49 26.8179,11.99 15.5,12.5 Z"/></g>
</svg>
